<?xml version="1.0" encoding="UTF-8"?>
<svg xmlns="http://www.w3.org/2000/svg" xmlns:xlink="http://www.w3.org/1999/xlink" width="56pt" height="78pt" viewBox="0 0 56 78" version="1.1">
<defs>
<clipPath id="clip1">
  <rect width="4" height="4"/>
</clipPath>
<g id="surface6" clip-path="url(#clip1)">
<path style=" stroke:none;fill-rule:nonzero;fill:rgb(83.137255%,0%,0%);fill-opacity:1;" d="M 1.816406 0.191406 L 1.585938 0.851562 L 2.011719 1.410156 L 1.300781 1.402344 L 0.890625 1.972656 L 0.679688 1.304688 L 0 1.097656 L 0.582031 0.695312 L 0.570312 0 L 1.140625 0.417969 Z M 1.816406 0.191406 "/>
<path style=" stroke:none;fill-rule:nonzero;fill:rgb(83.137255%,0%,0%);fill-opacity:1;" d="M 4 1.207031 L 3.300781 1.34375 L 3.023438 1.984375 L 2.675781 1.375 L 1.964844 1.3125 L 2.449219 0.800781 L 2.292969 0.121094 L 2.9375 0.410156 L 3.550781 0.0546875 L 3.464844 0.746094 Z M 4 1.207031 "/>
<path style=" stroke:none;fill-rule:nonzero;fill:rgb(83.137255%,0%,0%);fill-opacity:1;" d="M 1.816406 3.808594 L 1.585938 3.148438 L 2.011719 2.589844 L 1.300781 2.597656 L 0.890625 2.027344 L 0.679688 2.695312 L 0 2.902344 L 0.582031 3.304688 L 0.570312 4 L 1.140625 3.582031 Z M 1.816406 3.808594 "/>
<path style=" stroke:none;fill-rule:nonzero;fill:rgb(83.137255%,0%,0%);fill-opacity:1;" d="M 4 2.792969 L 3.300781 2.65625 L 3.023438 2.015625 L 2.675781 2.625 L 1.964844 2.6875 L 2.449219 3.199219 L 2.292969 3.878906 L 2.9375 3.589844 L 3.550781 3.945312 L 3.464844 3.253906 Z M 4 2.792969 "/>
</g>
<pattern id="pattern0" patternUnits="userSpaceOnUse" width="4" height="4" patternTransform="matrix(2.964864,-2.964864,3.025692,3.025692,127.76526,536.84923)">
<use xlink:href="#surface6"/>
</pattern>
</defs>
<g id="surface1">
<path style="fill-rule:nonzero;fill:rgb(100%,100%,100%);fill-opacity:1;stroke-width:1;stroke-linecap:butt;stroke-linejoin:miter;stroke:rgb(0%,0%,0%);stroke-opacity:1;stroke-miterlimit:4;" d="M -539.804884 490.50238 L -338.846667 490.50238 C -332.966784 490.50238 -328.206879 495.268005 -328.206879 501.12738 L -328.206879 790.68988 C -328.206879 796.549255 -332.966784 801.31488 -338.846667 801.31488 L -539.804884 801.31488 C -545.684767 801.31488 -550.444672 796.549255 -550.444672 790.68988 L -550.444672 501.12738 C -550.444672 495.268005 -545.684767 490.50238 -539.804884 490.50238 Z M -539.804884 490.50238 " transform="matrix(0.251121,0,0,0.25,138.353258,-122.500595)"/>
<path style="fill:none;stroke-width:4.952383;stroke-linecap:round;stroke-linejoin:miter;stroke:rgb(83.137255%,0%,0%);stroke-opacity:1;stroke-miterlimit:4;" d="M -537.860479 502.580505 L -340.806628 502.580505 L -340.806628 789.236755 L -537.860479 789.236755 Z M -537.860479 502.580505 " transform="matrix(0.251121,0,0,0.25,138.353258,-122.500595)"/>
<path style="fill-rule:nonzero;fill:url(#pattern0);stroke-width:1;stroke-linecap:round;stroke-linejoin:miter;stroke:rgb(83.137255%,0%,0%);stroke-opacity:1;stroke-miterlimit:4;" d="M -533.473899 506.455505 L -345.193207 506.455505 L -345.193207 785.361755 L -533.473899 785.361755 Z M -533.473899 506.455505 " transform="matrix(0.251121,0,0,0.25,138.353258,-122.500595)"/>
</g>
</svg>
